<?xml version="1.0" encoding="UTF-8" standalone="no"?>
<!-- Created with Inkscape (http://www.inkscape.org/) -->

<svg
   width="100mm"
   height="100mm"
   viewBox="0 0 100 100"
   version="1.1"
   id="svg1"
   xml:space="preserve"
   inkscape:version="1.3.2 (091e20e, 2023-11-25, custom)"
   sodipodi:docname="ether.svg"
   xmlns:inkscape="http://www.inkscape.org/namespaces/inkscape"
   xmlns:sodipodi="http://sodipodi.sourceforge.net/DTD/sodipodi-0.dtd"
   xmlns="http://www.w3.org/2000/svg"
   xmlns:svg="http://www.w3.org/2000/svg"><sodipodi:namedview
     id="namedview1"
     pagecolor="#505050"
     bordercolor="#eeeeee"
     borderopacity="1"
     inkscape:showpageshadow="0"
     inkscape:pageopacity="0"
     inkscape:pagecheckerboard="0"
     inkscape:deskcolor="#505050"
     inkscape:document-units="mm"
     inkscape:zoom="0.54236816"
     inkscape:cx="-268.26796"
     inkscape:cy="67.297461"
     inkscape:window-width="1920"
     inkscape:window-height="1057"
     inkscape:window-x="1352"
     inkscape:window-y="-8"
     inkscape:window-maximized="1"
     inkscape:current-layer="layer1" /><defs
     id="defs1" /><g
     inkscape:label="Capa 1"
     inkscape:groupmode="layer"
     id="layer1"><g
       id="g3"><path
         id="path1"
         style="display:inline;opacity:1;fill:#a38aff;fill-opacity:1;stroke-width:0.264583"
         d="M 49.265727,4.067452 C 26.468422,4.5491968 4.4045953,21.155806 7.3173828,52.44176 c 7.9251512,44.644633 71.7994752,43.000943 67.3204382,0 C 73.579047,42.277009 62.47279,23.1728 40.422856,32.68741 c 6.694684,-5.778009 34.331345,-8.59632 40.949356,19.411126 7.448333,41.60993 -60.528106,61.838104 -78.4452589,0.343221 3.8672652,59.252283 90.7218729,58.403343 92.6878829,0 C 95.594171,19.228826 72.063032,3.5857072 49.265727,4.067452 Z m 1.394747,12.48916 C 59.46608,16.700821 68.328348,20.242148 75.125647,28.29388 47.484659,11.079806 21.135761,30.595373 24.757145,52.44176 34.55385,82.257792 63.539827,66.588812 58.783492,52.075891 54.353534,35.269363 36.11678,42.745127 37.928951,52.685673 38.891068,58.09424 43.961795,62.608948 50.612415,58.905448 45.629666,65.217146 36.164168,61.535303 34.27026,54.027193 29.216343,41.75328 48.548382,25.573826 63.051965,42.563293 80.075541,64.152611 47.603468,93.486467 23.781494,69.759566 2.4058637,41.728372 26.315561,16.157916 50.660474,16.556612 Z"
         sodipodi:nodetypes="scsccccssccccccccs" /></g></g></svg>
